<svg width="57" height="57" viewBox="0 0 57 57" fill="none" xmlns="http://www.w3.org/2000/svg">
<g clip-path="url(#clip0_2001_588)">
<path d="M55.5418 28.0353H50.8042C52.7738 23.5638 52.5608 19.944 51.8156 17.4953C50.538 13.1303 46.2262 8.39267 39.8384 8.39267C38.135 8.39267 36.4316 8.71206 34.6749 9.35084C31.6407 10.4687 29.6179 11.693 28.7129 12.3318C27.808 11.693 25.8384 10.4687 22.751 9.35084C20.9943 8.71206 19.2376 8.39267 17.5875 8.39267C11.1996 8.39267 6.88783 13.1303 5.61027 17.4953C4.86502 20.1037 4.59886 24.0429 7.10076 28.9934H1.35171C0.872624 28.9934 0.5 29.3661 0.5 29.8451C0.5 30.3242 0.872624 30.6968 1.35171 30.6968H8.11217C8.37833 31.1759 8.69772 31.655 9.07034 32.1341C14.6065 40.1189 26.6369 48.7957 28.8194 49.328V49.3813C28.8194 49.3813 28.8726 49.3813 28.9259 49.328C28.9791 49.328 29.0323 49.328 29.0856 49.328V49.2748C30.9487 48.3699 42.5 40.9174 48.5684 32.0809C49.154 31.2824 49.6331 30.4839 50.0589 29.6854H55.6483C56.1274 29.6854 56.5 29.3128 56.5 28.8337C56.5 28.3546 56.0209 28.0353 55.5418 28.0353ZM47.0247 31.1759C41.3821 39.4269 31.0019 46.0809 28.7662 47.5181C26.4772 46.0809 16.1502 39.3737 10.4544 31.1759C10.3479 31.0162 10.2414 30.8565 10.135 30.6968H17.9601C18.2795 30.6968 18.5989 30.5372 18.7586 30.2178L22.3251 23.1911L27.9144 37.5105C28.0209 37.8299 28.3935 38.0429 28.7129 38.0429C28.7129 38.0429 28.7129 38.0429 28.7662 38.0429C29.1388 38.0429 29.4582 37.7767 29.5646 37.4041L34.462 20.636L37.0703 29.0999C37.1768 29.4193 37.443 29.6322 37.7624 29.6854C38.0818 29.7387 38.4011 29.579 38.6141 29.3128L40.6901 26.2786L42.4468 29.2596C42.6065 29.5257 42.8726 29.6854 43.192 29.6854H47.9829C47.6635 30.2178 47.3441 30.6969 47.0247 31.1759ZM48.9411 28.0353H43.7243L41.5418 24.309C41.3821 24.0429 41.116 23.8832 40.7966 23.8832C40.4772 23.8832 40.211 23.9896 40.0513 24.2558L38.2414 26.9174L35.3137 17.3889C35.2072 17.0162 34.8346 16.8033 34.462 16.7501C34.0894 16.7501 33.7167 17.0162 33.6103 17.3889L28.6597 34.4763L23.2833 20.7425C23.1768 20.4231 22.8574 20.2102 22.538 20.2102C22.1654 20.2102 21.8992 20.3699 21.7395 20.6892L17.5342 28.9402H9.07034C6.94107 25.0543 6.35551 21.328 7.31369 17.9744C8.43156 14.1949 12.1046 10.1493 17.6407 10.1493C19.1312 10.1493 20.6749 10.4687 22.2186 11.001C26.1046 12.4383 28.1806 14.0885 28.2338 14.0885C28.5532 14.3546 28.9791 14.3546 29.2985 14.0885C29.2985 14.0885 31.3745 12.4383 35.3137 11.001C36.8574 10.4155 38.4011 10.1493 39.8916 10.1493C45.3745 10.1493 49.1008 14.1949 50.2186 17.9744C51.1236 21.0619 50.6445 24.4687 48.9411 28.0353Z" fill="url(#paint0_linear_2001_588)"/>
</g>
<defs>
<linearGradient id="paint0_linear_2001_588" x1="20.7185" y1="23.4918" x2="57.5696" y2="27.0475" gradientUnits="userSpaceOnUse">
<stop stop-color="#D32318"/>
<stop offset="1" stop-color="#F92114"/>
</linearGradient>
<clipPath id="clip0_2001_588">
<rect width="56" height="56" fill="white" transform="translate(0.5 0.886963)"/>
</clipPath>
</defs>
</svg>
